<svg xmlns="http://www.w3.org/2000/svg" viewBox="0 0 64 64">
  <defs>
    <linearGradient id="wolfGrad" x1="0%" y1="0%" x2="0%" y2="100%">
      <stop offset="0%" style="stop-color:#6b7280;stop-opacity:1" />
      <stop offset="100%" style="stop-color:#374151;stop-opacity:1" />
    </linearGradient>
    <linearGradient id="bgGrad" x1="0%" y1="0%" x2="0%" y2="100%">
      <stop offset="0%" style="stop-color:#4fc3f7;stop-opacity:1" />
      <stop offset="100%" style="stop-color:#0d5c7a;stop-opacity:1" />
    </linearGradient>
  </defs>
  
  <!-- Background circle -->
  <circle cx="32" cy="32" r="30" fill="url(#bgGrad)" stroke="#0a4a5e" stroke-width="2"/>
  
  <!-- Inner ring -->
  <circle cx="32" cy="32" r="26" fill="none" stroke="rgba(255,255,255,0.2)" stroke-width="1.5"/>
  
  <!-- Stark Direwolf head -->
  <path fill="#ffffff" d="
    M32 8
    L22 18 L16 12 L19 26
    L8 32 L19 38
    L16 52 L26 44 L32 56
    L38 44 L48 52 L45 38
    L56 32 L45 26
    L48 12 L42 18
    Z
  "/>
  
  <!-- Wolf inner details -->
  <path fill="url(#bgGrad)" d="
    M32 16
    L26 22 L23 19 L25 28
    L18 32 L25 36
    L23 45 L29 40 L32 47
    L35 40 L41 45 L39 36
    L46 32 L39 28
    L41 19 L38 22
    Z
  "/>
  
  <!-- Wolf eyes -->
  <circle cx="27" cy="30" r="2.5" fill="#ffffff"/>
  <circle cx="37" cy="30" r="2.5" fill="#ffffff"/>
  <circle cx="27" cy="30" r="1" fill="#0d5c7a"/>
  <circle cx="37" cy="30" r="1" fill="#0d5c7a"/>
</svg>